<?xml version="1.0" standalone="no"?>
<!DOCTYPE svg PUBLIC "-//W3C//DTD SVG 20010904//EN"
 "http://www.w3.org/TR/2001/REC-SVG-20010904/DTD/svg10.dtd">
<svg version="1.0" xmlns="http://www.w3.org/2000/svg"
 width="200.000000pt" height="200.000000pt" viewBox="0 0 200.000000 200.000000"
 preserveAspectRatio="xMidYMid meet">
<metadata>
Created by potrace 1.14, written by Peter Selinger 2001-2017
</metadata>
<g transform="translate(0.000000,200.000000) scale(0.100000,-0.100000)"
fill="#000000" stroke="none">
<path d="M278 1303 c0 -5 -2 -51 -3 -103 -4 -126 -2 -120 -24 -120 -27 0 -61
-47 -61 -85 0 -34 30 -70 64 -77 18 -3 19 -13 20 -115 l0 -113 728 0 728 0 0
110 c0 107 1 111 24 120 55 21 75 100 34 137 -13 11 -31 23 -40 26 -16 6 -18
21 -18 117 l0 110 -725 0 c-399 0 -726 -3 -727 -7z"/>
</g>
</svg>
